<svg xmlns="http://www.w3.org/2000/svg" xmlns:xlink="http://www.w3.org/1999/xlink" width="1080" zoomAndPan="magnify" viewBox="0 0 810 809.999993" height="1080" preserveAspectRatio="xMidYMid meet" version="1.0"><defs><clipPath id="25f8413bc7"><path d="M 243 243 L 567 243 L 567 567 L 243 567 Z M 243 243 " clip-rule="nonzero"/></clipPath></defs><path fill="#100f0d" d="M 405.027344 314.285156 C 383.546875 314.285156 366.128906 331.699219 366.128906 353.183594 C 366.128906 374.667969 383.546875 392.085938 405.027344 392.085938 C 426.511719 392.085938 443.925781 374.667969 443.925781 353.183594 C 443.925781 331.699219 426.511719 314.285156 405.027344 314.285156 " fill-opacity="1" fill-rule="nonzero"/><g clip-path="url(#25f8413bc7)"><path fill="#100f0d" d="M 405.027344 504.238281 C 405.027344 504.238281 332.023438 404.894531 332.023438 364.574219 C 332.023438 324.253906 364.707031 291.570312 405.027344 291.570312 C 445.347656 291.570312 478.035156 324.253906 478.035156 364.574219 C 478.035156 404.894531 405.027344 504.238281 405.027344 504.238281 Z M 405.027344 243.011719 C 315.550781 243.011719 243.011719 315.550781 243.011719 405.027344 C 243.011719 494.507812 315.550781 567.042969 405.027344 567.042969 C 494.507812 567.042969 567.042969 494.507812 567.042969 405.027344 C 567.042969 315.550781 494.507812 243.011719 405.027344 243.011719 " fill-opacity="1" fill-rule="nonzero"/></g></svg>