<?xml version="1.0" standalone="no"?>
<!DOCTYPE svg PUBLIC "-//W3C//DTD SVG 20010904//EN"
 "http://www.w3.org/TR/2001/REC-SVG-20010904/DTD/svg10.dtd">
<svg version="1.0" xmlns="http://www.w3.org/2000/svg"
 width="707.000000pt" height="353.000000pt" viewBox="0 0 707.000000 353.000000"
 preserveAspectRatio="xMidYMid meet">

<g transform="translate(0.000000,353.000000) scale(0.100000,-0.100000)"
fill="#000000" stroke="none">
<path d="M1030 2770 c-236 -30 -431 -122 -598 -284 -69 -66 -123 -134 -77 -96
9 8 34 15 55 15 l38 0 -16 -27 c-9 -16 -21 -28 -26 -28 -5 0 -7 -3 -3 -6 3 -4
39 26 79 66 118 117 224 180 395 234 166 53 41 51 2663 51 1954 0 2459 -3
2515 -13 86 -16 212 -55 285 -90 63 -29 182 -108 224 -148 20 -19 30 -23 36
-14 5 9 11 6 22 -9 8 -11 18 -18 21 -14 4 3 7 -1 7 -10 0 -24 -17 -21 -25 3
-3 11 -11 20 -16 20 -16 0 -9 -14 32 -59 33 -37 46 -33 18 5 -5 6 -6 14 -2 17
11 12 23 8 23 -7 0 -8 3 -17 8 -19 12 -8 8 59 -5 75 -7 8 -10 17 -7 20 3 3
-16 23 -42 44 -26 22 -61 51 -77 65 -73 67 -262 155 -407 192 l-85 21 -2485 2
c-1367 1 -2514 -2 -2550 -6z m5650 -360 c0 -5 -5 -10 -11 -10 -5 0 -7 5 -4 10
3 6 8 10 11 10 2 0 4 -4 4 -10z"/>
<path d="M6710 2393 c0 -13 5 -23 10 -23 13 0 13 11 0 30 -8 12 -10 11 -10 -7z"/>
<path d="M371 2386 c-10 -12 -10 -20 3 -38 9 -12 16 -17 16 -11 0 7 -5 15 -10
18 -8 5 -7 11 1 21 6 8 10 17 7 19 -3 3 -11 -1 -17 -9z"/>
<path d="M396 2373 c-6 -14 -5 -15 5 -6 7 7 10 15 7 18 -3 3 -9 -2 -12 -12z"/>
<path d="M340 2345 c13 -14 26 -25 28 -25 3 0 -5 11 -18 25 -13 14 -26 25 -28
25 -3 0 5 -11 18 -25z"/>
<path d="M304 2339 c-4 -7 -3 -9 4 -5 5 3 13 0 15 -6 4 -9 6 -10 6 -1 1 17
-16 25 -25 12z"/>
<path d="M6913 1255 c-7 -8 -9 -16 -4 -19 5 -3 12 1 15 10 8 22 4 25 -11 9z"/>
<path d="M6807 1227 c-3 -8 1 -14 8 -14 7 0 11 6 8 14 -3 7 -6 13 -8 13 -2 0
-5 -6 -8 -13z"/>
<path d="M6891 1225 c4 -13 -20 -57 -40 -72 -21 -15 -27 -8 -10 13 12 15 12
17 -1 12 -8 -2 -20 -15 -26 -27 -13 -25 -22 -26 -46 -4 -12 11 -18 12 -18 4 0
-7 -31 -42 -68 -80 -166 -165 -347 -260 -574 -301 -110 -20 -149 -20 -2579
-20 -2454 0 -2469 0 -2576 21 -202 38 -399 138 -536 270 -39 37 -74 66 -79 63
-4 -3 -6 1 -3 8 7 19 -41 69 -59 62 -23 -9 -20 -26 3 -19 24 7 38 -12 21 -28
-10 -9 -11 -9 -5 2 6 11 4 13 -7 8 -9 -3 -19 -3 -23 1 -4 4 -12 7 -18 7 -5 0
-12 7 -14 15 -4 13 -3 13 6 0 8 -12 10 -9 7 13 -1 15 -6 30 -11 35 -4 4 -5 2
-1 -5 3 -6 -3 -18 -16 -27 -19 -14 -23 -14 -35 2 -19 22 -6 -4 19 -41 11 -15
24 -25 29 -22 5 4 6 -1 3 -9 -8 -20 179 -208 262 -263 128 -86 276 -147 439
-180 86 -17 212 -18 2605 -18 2404 0 2519 1 2600 18 227 49 390 131 553 279
68 61 76 72 65 87 -12 14 -11 14 4 3 15 -12 21 -8 48 29 17 24 28 50 25 58 -3
9 -3 12 1 8 9 -9 44 22 44 39 0 7 7 20 16 29 13 13 14 19 5 28 -7 7 -11 8 -10
2z"/>
<path d="M6800 1189 c0 -5 5 -7 10 -4 6 3 10 8 10 11 0 2 -4 4 -10 4 -5 0 -10
-5 -10 -11z"/>
<path d="M6777 1153 c3 -7 9 -10 14 -7 14 8 11 21 -5 21 -8 0 -12 -6 -9 -14z"/>
</g>
</svg>
