<svg xmlns="http://www.w3.org/2000/svg" xmlns:xlink="http://www.w3.org/1999/xlink" width="1080" zoomAndPan="magnify" viewBox="0 0 810 809.999993" height="1080" preserveAspectRatio="xMidYMid meet" version="1.0"><defs><clipPath id="b37473a4d0"><path d="M 243 243 L 567 243 L 567 567 L 243 567 Z M 243 243 " clip-rule="nonzero"/></clipPath></defs><g clip-path="url(#b37473a4d0)"><path fill="#000000" d="M 404.972656 242.996094 C 315.296875 242.996094 242.980469 316.035156 242.980469 404.984375 C 242.980469 494.65625 316.023438 566.972656 404.972656 566.972656 C 494.644531 566.972656 566.960938 493.933594 566.960938 404.984375 C 566.960938 316.035156 494.644531 242.996094 404.972656 242.996094 Z M 505.492188 483.085938 C 501.152344 497.550781 481.628906 518.523438 463.546875 518.523438 L 462.101562 517.800781 C 435.34375 516.351562 398.464844 491.042969 364.472656 449.820312 L 352.179688 434.632812 C 318.191406 393.414062 300.113281 352.917969 304.449219 326.882812 C 307.34375 308.078125 334.824219 292.894531 350.734375 292.894531 C 358.6875 292.894531 361.582031 296.507812 362.304688 299.402344 C 370.984375 315.3125 382.554688 342.792969 382.554688 352.917969 L 382.554688 354.363281 C 380.382812 359.425781 376.042969 362.316406 372.429688 364.488281 C 367.367188 367.378906 364.472656 369.550781 363.75 374.613281 C 363.75 376.058594 365.199219 384.011719 387.617188 411.492188 L 397.015625 423.0625 C 419.433594 449.820312 426.667969 452.714844 428.113281 452.714844 C 433.898438 453.4375 436.066406 451.265625 440.40625 446.929688 C 443.300781 443.3125 446.914062 439.695312 451.976562 438.972656 L 453.425781 438.972656 C 463.546875 441.144531 488.136719 457.054688 502.601562 469.347656 C 504.769531 470.070312 508.386719 473.6875 505.492188 483.085938 Z M 505.492188 483.085938 " fill-opacity="1" fill-rule="nonzero"/></g></svg>