<svg xmlns="http://www.w3.org/2000/svg" xmlns:xlink="http://www.w3.org/1999/xlink" width="1080" zoomAndPan="magnify" viewBox="0 0 810 809.999993" height="1080" preserveAspectRatio="xMidYMid meet" version="1.0"><path fill="#000000" d="M 549.09375 566.976562 C 558.96875 566.976562 566.972656 558.972656 566.972656 549.09375 L 566.972656 260.882812 C 566.972656 251.003906 558.96875 243 549.09375 243 L 260.882812 243 C 251.003906 243 243 251.003906 243 260.882812 L 243 549.09375 C 243 558.96875 251.003906 566.976562 260.882812 566.976562 Z M 549.09375 566.976562 " fill-opacity="1" fill-rule="nonzero"/><path fill="#ffffff" d="M 466.539062 566.976562 L 466.539062 441.515625 L 508.648438 441.515625 L 514.953125 392.621094 L 466.539062 392.621094 L 466.539062 361.40625 C 466.539062 347.25 470.46875 337.601562 490.769531 337.601562 L 516.660156 337.589844 L 516.660156 293.859375 C 512.179688 293.261719 496.8125 291.933594 478.933594 291.933594 C 441.601562 291.933594 416.046875 314.71875 416.046875 356.5625 L 416.046875 392.621094 L 373.824219 392.621094 L 373.824219 441.515625 L 416.046875 441.515625 L 416.046875 566.976562 Z M 466.539062 566.976562 " fill-opacity="1" fill-rule="nonzero"/></svg>