<svg xmlns="http://www.w3.org/2000/svg" xmlns:xlink="http://www.w3.org/1999/xlink" width="1080" zoomAndPan="magnify" viewBox="0 0 810 809.999993" height="1080" preserveAspectRatio="xMidYMid meet" version="1.0"><defs><g/><clipPath id="4a4b342510"><path d="M 214.066406 344.25 L 596 344.25 L 596 465.75 L 214.066406 465.75 Z M 214.066406 344.25 " clip-rule="nonzero"/></clipPath><clipPath id="cf49da2142"><path d="M 535.183594 344.25 C 568.734375 344.25 595.933594 371.449219 595.933594 405 C 595.933594 438.550781 568.734375 465.75 535.183594 465.75 L 274.816406 465.75 C 241.265625 465.75 214.066406 438.550781 214.066406 405 C 214.066406 371.449219 241.265625 344.25 274.816406 344.25 Z M 535.183594 344.25 " clip-rule="nonzero"/></clipPath></defs><g clip-path="url(#4a4b342510)"><g clip-path="url(#cf49da2142)"><path fill="#ea5569" d="M 214.066406 344.25 L 596.125 344.25 L 596.125 465.75 L 214.066406 465.75 Z M 214.066406 344.25 " fill-opacity="1" fill-rule="nonzero"/></g></g><g fill="#ffffff" fill-opacity="1"><g transform="translate(259.681894, 418.499999)"><g><path d="M 17.21875 0.589844 C 26.921875 0.589844 33.179688 -6.59375 32.507812 -16.675781 L 15.917969 -16.675781 L 15.917969 -11.507812 L 25.453125 -11.507812 C 24.613281 -7.9375 21.589844 -5.542969 17.304688 -5.542969 C 11.929688 -5.542969 8.484375 -9.40625 8.484375 -14.699219 C 8.484375 -20.074219 12.054688 -23.855469 17.21875 -23.855469 C 20.496094 -23.855469 23.226562 -22.34375 24.652344 -19.78125 L 31.835938 -19.78125 C 30.070312 -25.957031 24.234375 -29.988281 17.09375 -29.988281 C 8.148438 -29.988281 1.804688 -23.644531 1.804688 -14.699219 C 1.804688 -5.710938 8.191406 0.589844 17.21875 0.589844 Z M 17.21875 0.589844 "/></g></g></g><g fill="#ffffff" fill-opacity="1"><g transform="translate(293.953891, 418.499999)"><g><path d="M 3.527344 0 L 23.308594 0 L 23.308594 -5.671875 L 10.164062 -5.671875 L 10.164062 -12.097656 L 21.714844 -12.097656 L 21.714844 -17.683594 L 10.164062 -17.683594 L 10.164062 -23.773438 L 22.847656 -23.773438 L 22.847656 -29.398438 L 3.527344 -29.398438 Z M 3.527344 0 "/></g></g></g><g fill="#ffffff" fill-opacity="1"><g transform="translate(319.405882, 418.499999)"><g><path d="M 10.585938 0 L 17.261719 0 L 17.261719 -23.140625 L 26.585938 -23.140625 L 26.585938 -29.398438 L 1.261719 -29.398438 L 1.261719 -23.140625 L 10.585938 -23.140625 Z M 10.585938 0 "/></g></g></g><g fill="#ffffff" fill-opacity="1"><g transform="translate(347.251873, 418.499999)"><g/></g></g><g fill="#ffffff" fill-opacity="1"><g transform="translate(357.121876, 418.499999)"><g><path d="M 13.777344 0.589844 C 20.746094 0.589844 25.03125 -2.730469 25.03125 -8.273438 C 25.03125 -12.9375 21.964844 -15.707031 14.65625 -17.429688 C 10.164062 -18.480469 8.609375 -19.613281 8.609375 -21.421875 C 8.609375 -23.351562 10.332031 -24.527344 13.144531 -24.527344 C 16.210938 -24.527344 18.058594 -22.933594 18.058594 -20.285156 L 24.484375 -20.285156 C 24.484375 -26.207031 20.035156 -29.988281 13.0625 -29.988281 C 6.300781 -29.988281 2.101562 -26.671875 2.101562 -21.292969 C 2.101562 -16.507812 5.335938 -13.648438 12.222656 -12.179688 C 16.378906 -11.296875 18.269531 -10.078125 18.269531 -8.023438 C 18.269531 -6.046875 16.507812 -4.914062 13.734375 -4.914062 C 10.5 -4.914062 8.398438 -6.550781 8.398438 -9.367188 L 1.847656 -9.367188 C 1.847656 -3.277344 6.382812 0.589844 13.777344 0.589844 Z M 13.777344 0.589844 "/></g></g></g><g fill="#ffffff" fill-opacity="1"><g transform="translate(384.043871, 418.499999)"><g><path d="M 10.585938 0 L 17.261719 0 L 17.261719 -23.140625 L 26.585938 -23.140625 L 26.585938 -29.398438 L 1.261719 -29.398438 L 1.261719 -23.140625 L 10.585938 -23.140625 Z M 10.585938 0 "/></g></g></g><g fill="#ffffff" fill-opacity="1"><g transform="translate(411.889863, 418.499999)"><g><path d="M 0.378906 0 L 7.519531 0 L 9.492188 -5.082031 L 21.167969 -5.082031 L 23.140625 0 L 30.28125 0 L 18.605469 -29.398438 L 12.054688 -29.398438 Z M 11.214844 -10.332031 L 15.328125 -21.085938 L 19.488281 -10.332031 Z M 11.214844 -10.332031 "/></g></g></g><g fill="#ffffff" fill-opacity="1"><g transform="translate(442.549854, 418.499999)"><g><path d="M 3.527344 0 L 10.207031 0 L 10.207031 -9.15625 L 14.617188 -9.15625 L 19.867188 0 L 27.59375 0 L 21.503906 -10.207031 C 25.03125 -11.761719 27.089844 -14.953125 27.089844 -19.277344 C 27.089844 -25.535156 22.804688 -29.398438 16.085938 -29.398438 L 3.527344 -29.398438 Z M 10.121094 -14.785156 L 10.121094 -23.6875 L 15.203125 -23.6875 C 18.480469 -23.6875 20.328125 -22.09375 20.328125 -19.234375 C 20.328125 -16.378906 18.480469 -14.785156 15.203125 -14.785156 Z M 10.121094 -14.785156 "/></g></g></g><g fill="#ffffff" fill-opacity="1"><g transform="translate(472.11785, 418.499999)"><g><path d="M 10.585938 0 L 17.261719 0 L 17.261719 -23.140625 L 26.585938 -23.140625 L 26.585938 -29.398438 L 1.261719 -29.398438 L 1.261719 -23.140625 L 10.585938 -23.140625 Z M 10.585938 0 "/></g></g></g><g fill="#ffffff" fill-opacity="1"><g transform="translate(499.963842, 418.499999)"><g><path d="M 3.527344 0 L 23.308594 0 L 23.308594 -5.671875 L 10.164062 -5.671875 L 10.164062 -12.097656 L 21.714844 -12.097656 L 21.714844 -17.683594 L 10.164062 -17.683594 L 10.164062 -23.773438 L 22.847656 -23.773438 L 22.847656 -29.398438 L 3.527344 -29.398438 Z M 3.527344 0 "/></g></g></g><g fill="#ffffff" fill-opacity="1"><g transform="translate(525.415844, 418.499999)"><g><path d="M 3.527344 0 L 15.160156 0 C 24.445312 0 30.660156 -5.921875 30.660156 -14.699219 C 30.660156 -23.4375 24.445312 -29.398438 15.160156 -29.398438 L 3.527344 -29.398438 Z M 10.207031 -6.132812 L 10.207031 -23.269531 L 14.953125 -23.269531 C 20.242188 -23.269531 23.8125 -19.867188 23.8125 -14.699219 C 23.8125 -9.535156 20.242188 -6.132812 15.035156 -6.132812 Z M 10.207031 -6.132812 "/></g></g></g><g fill="#ffffff" fill-opacity="1"><g transform="translate(557.842039, 418.499999)"><g/></g></g></svg>