<svg xmlns="http://www.w3.org/2000/svg" xmlns:xlink="http://www.w3.org/1999/xlink" width="1080" zoomAndPan="magnify" viewBox="0 0 810 809.999993" height="1080" preserveAspectRatio="xMidYMid meet" version="1.0"><defs><clipPath id="beaf2a76c4"><path d="M 243 243 L 567 243 L 567 567 L 243 567 Z M 243 243 " clip-rule="nonzero"/></clipPath></defs><g clip-path="url(#beaf2a76c4)"><path fill="#131212" d="M 567.023438 517.785156 C 567.023438 544.976562 544.980469 567.015625 517.789062 567.015625 L 292.261719 567.015625 C 265.070312 567.015625 243.03125 544.976562 243.03125 517.785156 L 243.03125 292.261719 C 243.03125 265.070312 265.070312 243.03125 292.261719 243.03125 L 517.789062 243.03125 C 544.980469 243.03125 567.023438 265.070312 567.023438 292.261719 Z M 567.023438 517.785156 " fill-opacity="1" fill-rule="nonzero"/></g><path fill="#ffffff" d="M 337.226562 314.847656 L 477.285156 314.847656 C 490.589844 314.847656 501.46875 325.730469 501.46875 339.035156 L 501.46875 479.097656 C 501.46875 492.402344 490.589844 503.273438 477.285156 503.273438 L 337.226562 503.273438 C 323.917969 503.273438 313.027344 492.402344 313.027344 479.097656 L 313.027344 339.035156 C 313.027344 325.730469 323.917969 314.847656 337.226562 314.847656 Z M 450.304688 335.773438 C 445.632812 335.773438 441.820312 339.605469 441.820312 344.273438 L 441.820312 364.566406 C 441.820312 369.242188 445.632812 373.054688 450.304688 373.054688 L 471.601562 373.054688 C 476.265625 373.054688 480.085938 369.238281 480.085938 364.566406 L 480.085938 344.273438 C 480.085938 339.605469 476.265625 335.773438 471.601562 335.773438 Z M 480.167969 394.53125 L 463.585938 394.53125 C 465.15625 399.667969 466.011719 405.078125 466.011719 410.710938 C 466.011719 442.046875 439.773438 467.457031 407.425781 467.457031 C 375.082031 467.457031 348.847656 442.046875 348.847656 410.710938 C 348.847656 405.078125 349.710938 399.667969 351.273438 394.53125 L 333.976562 394.53125 L 333.976562 474.136719 C 333.976562 478.257812 337.34375 481.609375 341.460938 481.609375 L 472.683594 481.609375 C 476.804688 481.609375 480.167969 478.257812 480.167969 474.136719 Z M 407.425781 371.988281 C 386.535156 371.988281 369.589844 388.394531 369.589844 408.660156 C 369.589844 428.902344 386.535156 445.328125 407.425781 445.328125 C 428.328125 445.328125 445.277344 428.902344 445.277344 408.660156 C 445.277344 388.394531 428.328125 371.988281 407.425781 371.988281 Z M 407.425781 371.988281 " fill-opacity="1" fill-rule="nonzero"/></svg>