<svg xmlns="http://www.w3.org/2000/svg" xmlns:xlink="http://www.w3.org/1999/xlink" width="1080" zoomAndPan="magnify" viewBox="0 0 810 809.999993" height="1080" preserveAspectRatio="xMidYMid meet" version="1.0"><defs><clipPath id="7b87d3b2c4"><path d="M 230.40625 230.40625 L 579.90625 230.40625 L 579.90625 579.90625 L 230.40625 579.90625 Z M 230.40625 230.40625 " clip-rule="nonzero"/></clipPath></defs><g clip-path="url(#7b87d3b2c4)"><path fill="#000000" d="M 579.589844 526.496094 C 579.589844 555.800781 555.835938 579.558594 526.53125 579.558594 L 283.480469 579.558594 C 254.175781 579.558594 230.421875 555.800781 230.421875 526.496094 L 230.421875 283.445312 C 230.421875 254.140625 254.175781 230.386719 283.480469 230.386719 L 526.53125 230.386719 C 555.835938 230.386719 579.59375 254.140625 579.59375 283.445312 L 579.59375 526.496094 Z M 579.589844 526.496094 " fill-opacity="1" fill-rule="nonzero"/></g><path fill="#ffffff" d="M 368.488281 354.960938 C 368.488281 355.816406 368.449219 356.667969 368.363281 357.515625 C 368.28125 358.367188 368.15625 359.210938 367.988281 360.050781 C 367.820312 360.886719 367.613281 361.714844 367.367188 362.53125 C 367.117188 363.351562 366.832031 364.152344 366.503906 364.941406 C 366.175781 365.730469 365.8125 366.503906 365.410156 367.257812 C 365.007812 368.011719 364.570312 368.742188 364.09375 369.453125 C 363.621094 370.164062 363.109375 370.847656 362.570312 371.507812 C 362.027344 372.167969 361.453125 372.800781 360.851562 373.40625 C 360.246094 374.007812 359.613281 374.582031 358.953125 375.125 C 358.292969 375.664062 357.609375 376.175781 356.898438 376.648438 C 356.1875 377.125 355.457031 377.5625 354.703125 377.964844 C 353.949219 378.367188 353.175781 378.730469 352.386719 379.058594 C 351.597656 379.386719 350.796875 379.671875 349.976562 379.921875 C 349.160156 380.167969 348.332031 380.375 347.496094 380.542969 C 346.65625 380.710938 345.8125 380.835938 344.960938 380.917969 C 344.113281 381.003906 343.261719 381.042969 342.40625 381.042969 C 341.550781 381.042969 340.699219 381.003906 339.847656 380.917969 C 339 380.835938 338.15625 380.710938 337.316406 380.542969 C 336.480469 380.375 335.652344 380.167969 334.832031 379.921875 C 334.015625 379.671875 333.214844 379.386719 332.421875 379.058594 C 331.632812 378.730469 330.863281 378.367188 330.109375 377.964844 C 329.355469 377.5625 328.625 377.125 327.914062 376.648438 C 327.203125 376.175781 326.519531 375.664062 325.859375 375.125 C 325.199219 374.582031 324.566406 374.007812 323.960938 373.40625 C 323.355469 372.800781 322.785156 372.167969 322.242188 371.507812 C 321.699219 370.847656 321.191406 370.164062 320.71875 369.453125 C 320.242188 368.742188 319.804688 368.011719 319.402344 367.257812 C 319 366.503906 318.632812 365.730469 318.308594 364.941406 C 317.980469 364.152344 317.691406 363.351562 317.445312 362.53125 C 317.195312 361.714844 316.988281 360.886719 316.824219 360.050781 C 316.65625 359.210938 316.53125 358.367188 316.445312 357.515625 C 316.363281 356.667969 316.320312 355.816406 316.320312 354.960938 C 316.320312 354.105469 316.363281 353.253906 316.445312 352.402344 C 316.53125 351.554688 316.65625 350.710938 316.824219 349.871094 C 316.988281 349.035156 317.195312 348.207031 317.445312 347.386719 C 317.691406 346.570312 317.980469 345.769531 318.308594 344.976562 C 318.632812 344.1875 319 343.417969 319.402344 342.664062 C 319.804688 341.910156 320.242188 341.179688 320.71875 340.46875 C 321.191406 339.757812 321.699219 339.074219 322.242188 338.414062 C 322.785156 337.753906 323.355469 337.121094 323.960938 336.515625 C 324.566406 335.914062 325.199219 335.339844 325.859375 334.796875 C 326.519531 334.253906 327.203125 333.746094 327.914062 333.273438 C 328.625 332.796875 329.355469 332.359375 330.109375 331.957031 C 330.863281 331.554688 331.632812 331.1875 332.421875 330.863281 C 333.214844 330.535156 334.015625 330.246094 334.832031 330 C 335.652344 329.75 336.480469 329.542969 337.316406 329.378906 C 338.15625 329.210938 339 329.085938 339.847656 329 C 340.699219 328.917969 341.550781 328.875 342.40625 328.875 C 343.261719 328.875 344.113281 328.917969 344.960938 329 C 345.8125 329.085938 346.65625 329.210938 347.496094 329.378906 C 348.332031 329.542969 349.160156 329.75 349.976562 330 C 350.796875 330.246094 351.597656 330.535156 352.386719 330.863281 C 353.175781 331.1875 353.949219 331.554688 354.703125 331.957031 C 355.457031 332.359375 356.1875 332.796875 356.898438 333.273438 C 357.609375 333.746094 358.292969 334.253906 358.953125 334.796875 C 359.613281 335.339844 360.246094 335.910156 360.851562 336.515625 C 361.453125 337.121094 362.027344 337.753906 362.570312 338.414062 C 363.109375 339.074219 363.621094 339.757812 364.09375 340.46875 C 364.570312 341.179688 365.007812 341.910156 365.410156 342.664062 C 365.8125 343.417969 366.175781 344.1875 366.503906 344.976562 C 366.832031 345.769531 367.117188 346.570312 367.367188 347.386719 C 367.613281 348.207031 367.820312 349.035156 367.988281 349.871094 C 368.15625 350.710938 368.28125 351.554688 368.363281 352.402344 C 368.449219 353.253906 368.488281 354.105469 368.488281 354.960938 Z M 368.488281 354.960938 " fill-opacity="1" fill-rule="nonzero"/><path fill="#ffffff" d="M 319.917969 400.273438 L 364.730469 400.273438 L 364.730469 544.433594 L 319.917969 544.433594 Z M 319.917969 400.273438 " fill-opacity="1" fill-rule="nonzero"/><path fill="#ffffff" d="M 392.914062 400.273438 L 435.566406 400.273438 L 435.566406 544.433594 L 392.914062 544.433594 Z M 392.914062 400.273438 " fill-opacity="1" fill-rule="nonzero"/><path fill="#ffffff" d="M 394.757812 477.027344 L 437.410156 477.027344 L 437.410156 544.433594 L 394.757812 544.433594 Z M 394.757812 477.027344 " fill-opacity="1" fill-rule="nonzero"/><path fill="#ffffff" d="M 437.410156 477.027344 C 437.410156 477.027344 436.742188 458.332031 441.671875 448.609375 C 441.671875 448.609375 446.605469 436.636719 462.105469 436.566406 C 462.105469 436.566406 480.285156 433.390625 485.496094 451.429688 C 485.496094 451.429688 487.46875 461.433594 487.46875 465.660156 C 487.46875 469.890625 487.613281 544.433594 487.613281 544.433594 L 532.28125 544.433594 L 532.28125 461.859375 C 532.28125 461.859375 535.523438 415.210938 507.527344 402.433594 C 507.527344 402.433594 461.492188 381.769531 436.507812 419.722656 C 436.507812 419.722656 431.058594 423.476562 430.304688 412.957031 C 429.554688 402.433594 423.164062 429.117188 422.976562 429.679688 C 422.789062 430.246094 430.304688 482.851562 430.304688 482.851562 Z M 437.410156 477.027344 " fill-opacity="1" fill-rule="nonzero"/></svg>