<svg xmlns="http://www.w3.org/2000/svg" xmlns:xlink="http://www.w3.org/1999/xlink" width="1080" zoomAndPan="magnify" viewBox="0 0 810 809.999993" height="1080" preserveAspectRatio="xMidYMid meet" version="1.0"><path fill="#000000" d="M 405 243 C 315.53125 243 243 315.53125 243 405 C 243 494.46875 315.53125 567 405 567 C 494.46875 567 567 494.46875 567 405 C 567 315.53125 494.46875 243 405 243 Z M 306.261719 327.511719 L 503.527344 327.511719 C 503.753906 327.511719 503.957031 327.574219 504.144531 327.699219 C 504.328125 327.820312 504.460938 327.988281 504.546875 328.195312 C 504.628906 328.402344 504.648438 328.617188 504.601562 328.835938 C 504.550781 329.054688 504.449219 329.238281 504.285156 329.394531 L 437.96875 392.328125 L 437.863281 392.4375 L 418.058594 411.226562 C 417.589844 411.679688 417.097656 412.105469 416.582031 412.507812 C 416.070312 412.910156 415.539062 413.289062 414.992188 413.640625 C 414.441406 413.992188 413.878906 414.316406 413.296875 414.613281 C 412.71875 414.910156 412.125 415.179688 411.519531 415.421875 C 410.914062 415.660156 410.296875 415.871094 409.671875 416.054688 C 409.046875 416.234375 408.410156 416.386719 407.769531 416.507812 C 407.128906 416.628906 406.484375 416.71875 405.835938 416.777344 C 405.1875 416.835938 404.535156 416.863281 403.882812 416.859375 C 403.234375 416.859375 402.582031 416.824219 401.933594 416.757812 C 401.285156 416.691406 400.640625 416.59375 400 416.464844 C 399.363281 416.339844 398.730469 416.179688 398.105469 415.992188 C 397.480469 415.804688 396.867188 415.585938 396.265625 415.339844 C 395.664062 415.09375 395.070312 414.816406 394.496094 414.511719 C 393.917969 414.210938 393.355469 413.878906 392.8125 413.519531 C 392.265625 413.164062 391.742188 412.78125 391.230469 412.371094 C 390.722656 411.964844 390.234375 411.53125 389.769531 411.078125 L 371.433594 393.304688 C 371.40625 393.273438 371.375 393.242188 371.34375 393.214844 L 305.5 329.382812 C 305.339844 329.230469 305.238281 329.042969 305.191406 328.824219 C 305.144531 328.609375 305.164062 328.394531 305.25 328.191406 C 305.332031 327.984375 305.46875 327.820312 305.652344 327.695312 C 305.835938 327.574219 306.039062 327.511719 306.261719 327.511719 Z M 296.964844 471.601562 L 296.964844 336.21875 C 296.964844 336 297.023438 335.800781 297.144531 335.617188 C 297.265625 335.433594 297.425781 335.300781 297.628906 335.214844 C 297.832031 335.128906 298.039062 335.109375 298.253906 335.148438 C 298.46875 335.1875 298.65625 335.285156 298.8125 335.4375 L 361.382812 396.101562 C 361.585938 396.300781 361.695312 396.542969 361.710938 396.828125 C 361.726562 397.113281 361.640625 397.367188 361.460938 397.585938 L 298.890625 472.304688 C 298.742188 472.484375 298.558594 472.601562 298.335938 472.660156 C 298.113281 472.71875 297.894531 472.710938 297.679688 472.632812 C 297.464844 472.550781 297.289062 472.417969 297.160156 472.230469 C 297.027344 472.042969 296.964844 471.832031 296.964844 471.601562 Z M 505.5625 482.488281 L 304.4375 482.488281 C 304.226562 482.488281 304.03125 482.429688 303.855469 482.316406 C 303.675781 482.203125 303.542969 482.050781 303.453125 481.859375 C 303.363281 481.667969 303.332031 481.464844 303.359375 481.257812 C 303.386719 481.046875 303.46875 480.859375 303.605469 480.699219 L 367.835938 403.992188 C 367.933594 403.875 368.050781 403.785156 368.1875 403.714844 C 368.324219 403.648438 368.464844 403.613281 368.617188 403.605469 C 368.769531 403.597656 368.914062 403.617188 369.058594 403.671875 C 369.199219 403.726562 369.324219 403.804688 369.433594 403.910156 L 383.488281 417.539062 C 384.839844 418.851562 386.300781 420.023438 387.875 421.054688 C 389.449219 422.085938 391.105469 422.957031 392.847656 423.667969 C 394.589844 424.378906 396.386719 424.917969 398.230469 425.285156 C 400.078125 425.648438 401.941406 425.835938 403.824219 425.84375 L 403.984375 425.84375 C 405.851562 425.84375 407.703125 425.671875 409.539062 425.320312 C 411.375 424.96875 413.160156 424.445312 414.894531 423.753906 C 416.632812 423.0625 418.285156 422.210938 419.859375 421.203125 C 421.433594 420.195312 422.894531 419.042969 424.246094 417.753906 L 439.804688 402.984375 C 439.914062 402.882812 440.039062 402.804688 440.179688 402.753906 C 440.320312 402.703125 440.46875 402.679688 440.617188 402.6875 C 440.769531 402.695312 440.910156 402.734375 441.042969 402.804688 C 441.179688 402.871094 441.292969 402.960938 441.390625 403.078125 L 506.390625 480.699219 C 506.527344 480.859375 506.609375 481.046875 506.636719 481.253906 C 506.664062 481.464844 506.632812 481.664062 506.546875 481.855469 C 506.457031 482.046875 506.324219 482.199219 506.144531 482.316406 C 505.96875 482.429688 505.773438 482.488281 505.5625 482.488281 Z M 513.035156 471.601562 C 513.035156 471.832031 512.96875 472.039062 512.839844 472.230469 C 512.707031 472.417969 512.535156 472.550781 512.316406 472.628906 C 512.101562 472.707031 511.882812 472.714844 511.664062 472.65625 C 511.441406 472.597656 511.257812 472.476562 511.109375 472.300781 L 447.851562 396.761719 C 447.667969 396.542969 447.582031 396.289062 447.601562 396 C 447.617188 395.710938 447.730469 395.46875 447.9375 395.269531 L 511.199219 335.234375 C 511.359375 335.085938 511.542969 334.992188 511.757812 334.957031 C 511.972656 334.917969 512.175781 334.941406 512.378906 335.027344 C 512.578125 335.113281 512.734375 335.25 512.855469 335.429688 C 512.976562 335.609375 513.035156 335.808594 513.035156 336.027344 Z M 513.035156 471.601562 " fill-opacity="1" fill-rule="nonzero"/></svg>