<svg xmlns="http://www.w3.org/2000/svg" xmlns:xlink="http://www.w3.org/1999/xlink" width="1080" zoomAndPan="magnify" viewBox="0 0 810 809.999993" height="1080" preserveAspectRatio="xMidYMid meet" version="1.0"><defs><filter x="0%" y="0%" width="100%" height="100%" id="2d1eaa6436"><feColorMatrix values="0 0 0 0 1 0 0 0 0 1 0 0 0 0 1 0 0 0 1 0" color-interpolation-filters="sRGB"/></filter><clipPath id="eb1872d2f1"><path d="M 225 95 L 288 95 L 288 158 L 225 158 Z M 225 95 " clip-rule="nonzero"/></clipPath><clipPath id="754ecae025"><path d="M 241.925781 92.710938 L 290.039062 111.773438 L 270.976562 159.886719 L 222.863281 140.824219 Z M 241.925781 92.710938 " clip-rule="nonzero"/></clipPath><clipPath id="8b9389ff73"><path d="M 241.925781 92.710938 L 290.039062 111.773438 L 270.976562 159.886719 L 222.863281 140.824219 Z M 241.925781 92.710938 " clip-rule="nonzero"/></clipPath><clipPath id="a0de875414"><path d="M 238 109 L 273 109 L 273 144 L 238 144 Z M 238 109 " clip-rule="nonzero"/></clipPath><clipPath id="bde81747de"><path d="M 241.925781 92.710938 L 290.039062 111.773438 L 270.976562 159.886719 L 222.863281 140.824219 Z M 241.925781 92.710938 " clip-rule="nonzero"/></clipPath><clipPath id="9b4d9a0383"><path d="M 241.925781 92.710938 L 290.039062 111.773438 L 270.976562 159.886719 L 222.863281 140.824219 Z M 241.925781 92.710938 " clip-rule="nonzero"/></clipPath><clipPath id="21fae044fc"><path d="M 380 89 L 455 89 L 455 164 L 380 164 Z M 380 89 " clip-rule="nonzero"/></clipPath><clipPath id="314e2d5008"><path d="M 372.242188 100.941406 L 442.980469 80.976562 L 462.945312 151.710938 L 392.210938 171.675781 Z M 372.242188 100.941406 " clip-rule="nonzero"/></clipPath><clipPath id="4efcafc3f7"><path d="M 372.242188 100.941406 L 442.980469 80.976562 L 462.945312 151.710938 L 392.210938 171.675781 Z M 372.242188 100.941406 " clip-rule="nonzero"/></clipPath><clipPath id="e733becda9"><path d="M 395 104 L 441 104 L 441 150 L 395 150 Z M 395 104 " clip-rule="nonzero"/></clipPath><clipPath id="8a0128ee25"><path d="M 372.242188 100.941406 L 442.980469 80.976562 L 462.945312 151.710938 L 392.210938 171.675781 Z M 372.242188 100.941406 " clip-rule="nonzero"/></clipPath><clipPath id="22784ab752"><path d="M 372.242188 100.941406 L 442.980469 80.976562 L 462.945312 151.710938 L 392.210938 171.675781 Z M 372.242188 100.941406 " clip-rule="nonzero"/></clipPath><mask id="e96fe5090e"><g filter="url(#2d1eaa6436)"><rect x="-81" width="972" fill="#000000" y="-80.999999" height="971.999992" fill-opacity="0.99"/></g></mask><clipPath id="6df61e1c38"><path d="M 1 2 L 74 2 L 74 74 L 1 74 Z M 1 2 " clip-rule="nonzero"/></clipPath><clipPath id="9f7e49e1f9"><path d="M 0.859375 25.394531 L 49.933594 1.117188 L 74.210938 50.1875 L 25.136719 74.46875 Z M 0.859375 25.394531 " clip-rule="nonzero"/></clipPath><clipPath id="b72cf2992b"><path d="M 0.859375 25.394531 L 49.933594 1.117188 L 74.210938 50.1875 L 25.136719 74.46875 Z M 0.859375 25.394531 " clip-rule="nonzero"/></clipPath><clipPath id="c2e2b9c54b"><path d="M 32 12 L 60 12 L 60 62 L 32 62 Z M 32 12 " clip-rule="nonzero"/></clipPath><clipPath id="bba839d153"><path d="M 0.859375 25.394531 L 49.933594 1.117188 L 74.210938 50.1875 L 25.136719 74.46875 Z M 0.859375 25.394531 " clip-rule="nonzero"/></clipPath><clipPath id="772d70a057"><path d="M 0.859375 25.394531 L 49.933594 1.117188 L 74.210938 50.1875 L 25.136719 74.46875 Z M 0.859375 25.394531 " clip-rule="nonzero"/></clipPath><clipPath id="7b34b73310"><rect x="0" width="75" y="0" height="75"/></clipPath><clipPath id="cc64eb1e36"><path d="M 110.484375 260.484375 L 167.484375 260.484375 L 167.484375 317.484375 L 110.484375 317.484375 Z M 110.484375 260.484375 " clip-rule="nonzero"/></clipPath></defs><g clip-path="url(#eb1872d2f1)"><g clip-path="url(#754ecae025)"><g clip-path="url(#8b9389ff73)"><path fill="#ea394a" d="M 273.871094 152.574219 C 272.269531 156.613281 267.699219 158.582031 263.667969 156.984375 L 230.171875 143.714844 C 226.132812 142.113281 224.164062 137.542969 225.761719 133.511719 L 239.03125 100.023438 C 240.628906 95.992188 245.191406 94.011719 249.234375 95.609375 L 282.71875 108.878906 C 286.761719 110.480469 288.730469 115.050781 287.132812 119.082031 Z M 273.871094 152.574219 " fill-opacity="1" fill-rule="nonzero"/></g></g></g><g clip-path="url(#a0de875414)"><g clip-path="url(#bde81747de)"><g clip-path="url(#9b4d9a0383)"><path fill="#ffffff" d="M 261.910156 110.933594 C 253.230469 107.496094 243.417969 111.746094 239.980469 120.417969 C 237.433594 126.851562 239.117188 133.90625 243.683594 138.535156 C 244.074219 137.417969 244.628906 136.121094 245.382812 135.042969 C 246.199219 133.882812 250.796875 127.28125 250.796875 127.28125 C 250.796875 127.28125 250.683594 126.082031 251.273438 124.59375 C 252.195312 122.265625 254.238281 121.066406 255.910156 121.726562 C 257.332031 122.289062 257.605469 123.640625 257.097656 124.917969 C 256.527344 126.359375 254.753906 128.136719 253.503906 129.941406 C 252.445312 131.445312 253.136719 133.296875 254.78125 133.949219 C 257.757812 135.128906 261.277344 132.097656 263.070312 127.566406 C 264.4375 124.125 263.136719 120.628906 258.921875 118.957031 C 254.160156 117.070312 249.785156 119.445312 248.210938 123.417969 C 247.667969 124.78125 247.691406 125.914062 248.03125 126.90625 C 248.183594 127.371094 248.171875 127.519531 247.910156 127.867188 C 247.726562 128.132812 247.265625 128.757812 247.09375 128.996094 C 246.828125 129.355469 246.457031 129.371094 246.15625 129.085938 C 244.3125 127.328125 244.242188 124.519531 245.3125 121.816406 C 247.082031 117.355469 252.960938 113.488281 260.433594 116.449219 C 266.429688 118.824219 268.664062 124.742188 266.824219 129.386719 C 264.378906 135.558594 259.132812 138.796875 254.078125 136.792969 C 252.378906 136.121094 251.148438 134.566406 251.011719 133.3125 C 251.011719 133.3125 248.664062 136.574219 248.199219 137.1875 C 247.386719 138.261719 246.246094 139.222656 245.285156 139.929688 C 246.53125 140.902344 247.941406 141.722656 249.488281 142.335938 C 258.164062 145.773438 267.976562 141.523438 271.414062 132.851562 C 274.832031 124.203125 270.578125 114.371094 261.910156 110.933594 Z M 261.910156 110.933594 " fill-opacity="1" fill-rule="nonzero"/></g></g></g><path fill="#261d1f" d="M 582.09375 679.621094 L 428.28125 663.902344 C 404.828125 661.507812 388.894531 639.367188 392.53125 614.519531 L 451.101562 214.285156 C 454.511719 190.992188 475.660156 172.683594 498.496094 173.320312 L 648.117188 177.496094 C 672.148438 178.167969 699.300781 202.890625 696.234375 226.914062 L 644.476562 634.148438 C 641.199219 659.820312 606.824219 682.148438 582.09375 679.621094 Z M 582.09375 679.621094 " fill-opacity="1" fill-rule="nonzero"/><path fill="#f7f8f9" d="M 587.429688 655.984375 L 429.515625 640.410156 C 413.242188 638.804688 402.148438 623.492188 404.660156 606.238281 L 461.632812 214.710938 C 463.992188 198.5 478.714844 185.769531 494.59375 186.242188 L 648.511719 190.839844 C 665.207031 191.339844 677.054688 205.285156 674.894531 222.023438 L 622.703125 626.699219 C 620.402344 644.546875 604.570312 657.675781 587.429688 655.984375 Z M 587.429688 655.984375 " fill-opacity="1" fill-rule="nonzero"/><path fill="#261d1f" d="M 526.113281 180.101562 L 538.707031 197.273438 L 602.765625 199.277344 L 617.8125 182.746094 Z M 526.113281 180.101562 " fill-opacity="1" fill-rule="nonzero"/><path fill="#e8ebed" d="M 475.386719 238.582031 L 457.265625 356.070312 L 628.503906 369.195312 L 644.125 247.953125 Z M 475.386719 238.582031 " fill-opacity="1" fill-rule="nonzero"/><path fill="#e8ebed" d="M 446.640625 452.941406 L 428.515625 570.433594 L 599.753906 583.554688 L 615.378906 462.316406 Z M 446.640625 452.941406 " fill-opacity="1" fill-rule="nonzero"/><path fill="#e8ebed" d="M 456.015625 382.320312 L 454.140625 398.570312 L 622.253906 411.691406 L 624.753906 391.695312 Z M 456.015625 382.320312 " fill-opacity="1" fill-rule="nonzero"/><path fill="#e8ebed" d="M 451.015625 419.191406 L 449.140625 435.441406 L 617.253906 448.566406 L 619.753906 428.566406 Z M 451.015625 419.191406 " fill-opacity="1" fill-rule="nonzero"/><path fill="#2f0378" d="M 483.652344 444.710938 L 471.417969 528.699219 C 470.242188 537.398438 482.886719 540.101562 485.15625 534.472656 C 486.148438 532.011719 521.894531 447.070312 521.894531 447.070312 Z M 483.652344 444.710938 " fill-opacity="1" fill-rule="nonzero"/><path fill="#e8ebed" d="M 395.527344 243.269531 C 395.527344 243.269531 473.757812 333.039062 546.398438 362.113281 C 584.5 377.363281 556.9375 463.792969 517.636719 454.492188 C 471.824219 443.65625 418.359375 438.183594 329.492188 462.09375 Z M 395.527344 243.269531 " fill-opacity="1" fill-rule="nonzero"/><path fill="#2f0378" d="M 389.957031 228.71875 C 390.910156 228.996094 391.851562 229.324219 392.777344 229.695312 C 393.703125 230.070312 394.613281 230.492188 395.507812 230.960938 C 396.402344 231.429688 397.277344 231.949219 398.140625 232.511719 C 399 233.078125 399.84375 233.6875 400.667969 234.347656 C 401.492188 235.003906 402.296875 235.707031 403.082031 236.457031 C 403.871094 237.207031 404.636719 238 405.382812 238.839844 C 406.132812 239.679688 406.859375 240.5625 407.5625 241.488281 C 408.269531 242.417969 408.953125 243.386719 409.617188 244.398438 C 410.277344 245.414062 410.917969 246.46875 411.539062 247.5625 C 412.15625 248.660156 412.75 249.796875 413.320312 250.972656 C 413.894531 252.148438 414.441406 253.363281 414.964844 254.617188 C 415.488281 255.875 415.988281 257.164062 416.464844 258.492188 C 416.9375 259.824219 417.386719 261.1875 417.8125 262.589844 C 418.238281 263.988281 418.636719 265.425781 419.011719 266.894531 C 419.386719 268.363281 419.734375 269.863281 420.054688 271.394531 C 420.378906 272.929688 420.675781 274.492188 420.945312 276.089844 C 421.214844 277.683594 421.457031 279.304688 421.671875 280.957031 C 421.886719 282.609375 422.078125 284.285156 422.238281 285.992188 C 422.402344 287.695312 422.535156 289.425781 422.644531 291.175781 C 422.75 292.929688 422.832031 294.707031 422.886719 296.503906 C 422.9375 298.304688 422.964844 300.121094 422.960938 301.960938 C 422.960938 303.800781 422.933594 305.65625 422.875 307.53125 C 422.820312 309.40625 422.738281 311.296875 422.625 313.203125 C 422.515625 315.109375 422.378906 317.027344 422.214844 318.960938 C 422.046875 320.894531 421.855469 322.839844 421.636719 324.792969 C 421.417969 326.75 421.171875 328.710938 420.902344 330.6875 C 420.628906 332.660156 420.332031 334.636719 420.007812 336.625 C 419.679688 338.609375 419.332031 340.597656 418.953125 342.59375 C 418.578125 344.585938 418.175781 346.582031 417.746094 348.578125 C 417.320312 350.574219 416.867188 352.570312 416.390625 354.566406 C 415.910156 356.5625 415.410156 358.554688 414.882812 360.542969 C 414.355469 362.53125 413.804688 364.511719 413.230469 366.492188 C 412.65625 368.46875 412.0625 370.4375 411.441406 372.398438 C 410.820312 374.359375 410.179688 376.3125 409.511719 378.253906 C 408.847656 380.195312 408.160156 382.121094 407.453125 384.039062 C 406.746094 385.953125 406.015625 387.855469 405.269531 389.738281 C 404.519531 391.625 403.75 393.492188 402.960938 395.34375 C 402.171875 397.195312 401.363281 399.027344 400.539062 400.835938 C 399.710938 402.648438 398.867188 404.441406 398.003906 406.207031 C 397.140625 407.976562 396.261719 409.722656 395.367188 411.441406 C 394.472656 413.164062 393.558594 414.859375 392.632812 416.527344 C 391.707031 418.195312 390.765625 419.839844 389.808594 421.453125 C 388.851562 423.066406 387.882812 424.648438 386.898438 426.203125 C 385.914062 427.753906 384.917969 429.277344 383.910156 430.769531 C 382.902344 432.257812 381.882812 433.714844 380.855469 435.136719 C 379.824219 436.5625 378.785156 437.949219 377.734375 439.300781 C 376.6875 440.65625 375.628906 441.972656 374.5625 443.25 C 373.496094 444.527344 372.421875 445.769531 371.339844 446.972656 C 370.257812 448.175781 369.171875 449.335938 368.078125 450.460938 C 366.984375 451.582031 365.886719 452.664062 364.785156 453.703125 C 363.683594 454.746094 362.578125 455.742188 361.46875 456.699219 C 360.359375 457.652344 359.246094 458.5625 358.136719 459.433594 C 357.023438 460.300781 355.910156 461.125 354.792969 461.902344 C 353.679688 462.683594 352.566406 463.414062 351.453125 464.101562 C 350.339844 464.789062 349.230469 465.433594 348.121094 466.027344 C 347.011719 466.621094 345.90625 467.167969 344.804688 467.671875 C 343.703125 468.171875 342.605469 468.625 341.511719 469.027344 C 340.421875 469.433594 339.335938 469.792969 338.253906 470.101562 C 337.171875 470.410156 336.101562 470.667969 335.035156 470.878906 C 333.96875 471.09375 332.910156 471.253906 331.863281 471.367188 C 330.816406 471.484375 329.777344 471.546875 328.746094 471.5625 C 327.71875 471.578125 326.699219 471.546875 325.695312 471.464844 C 324.6875 471.382812 323.691406 471.25 322.710938 471.070312 C 321.730469 470.890625 320.761719 470.664062 319.804688 470.386719 C 318.851562 470.109375 317.910156 469.785156 316.984375 469.410156 C 316.058594 469.035156 315.148438 468.613281 314.253906 468.144531 C 313.359375 467.675781 312.484375 467.15625 311.625 466.59375 C 310.761719 466.027344 309.921875 465.417969 309.097656 464.761719 C 308.269531 464.101562 307.464844 463.398438 306.679688 462.648438 C 305.890625 461.898438 305.125 461.105469 304.378906 460.265625 C 303.628906 459.425781 302.902344 458.542969 302.199219 457.617188 C 301.492188 456.691406 300.808594 455.71875 300.144531 454.707031 C 299.484375 453.695312 298.84375 452.640625 298.226562 451.542969 C 297.605469 450.445312 297.011719 449.3125 296.441406 448.132812 C 295.871094 446.957031 295.320312 445.742188 294.796875 444.488281 C 294.273438 443.234375 293.773438 441.941406 293.300781 440.613281 C 292.824219 439.28125 292.375 437.917969 291.949219 436.515625 C 291.523438 435.117188 291.125 433.683594 290.75 432.214844 C 290.375 430.746094 290.027344 429.242188 289.707031 427.710938 C 289.382812 426.175781 289.089844 424.613281 288.820312 423.019531 C 288.550781 421.421875 288.308594 419.800781 288.089844 418.148438 C 287.875 416.496094 287.6875 414.820312 287.523438 413.117188 C 287.363281 411.410156 287.226562 409.683594 287.117188 407.929688 C 287.011719 406.175781 286.929688 404.398438 286.878906 402.601562 C 286.824219 400.800781 286.796875 398.984375 286.800781 397.144531 C 286.800781 395.308594 286.828125 393.449219 286.886719 391.574219 C 286.941406 389.699219 287.023438 387.808594 287.136719 385.902344 C 287.246094 383.996094 287.382812 382.078125 287.550781 380.144531 C 287.714844 378.210938 287.90625 376.269531 288.125 374.3125 C 288.34375 372.355469 288.589844 370.394531 288.859375 368.421875 C 289.132812 366.449219 289.429688 364.46875 289.757812 362.484375 C 290.082031 360.496094 290.433594 358.507812 290.808594 356.515625 C 291.183594 354.519531 291.585938 352.523438 292.015625 350.527344 C 292.441406 348.53125 292.894531 346.535156 293.375 344.539062 C 293.851562 342.546875 294.351562 340.554688 294.878906 338.5625 C 295.40625 336.574219 295.957031 334.59375 296.53125 332.613281 C 297.105469 330.636719 297.703125 328.667969 298.320312 326.707031 C 298.941406 324.746094 299.585938 322.792969 300.25 320.851562 C 300.914062 318.910156 301.601562 316.984375 302.308594 315.066406 C 303.015625 313.152344 303.746094 311.253906 304.496094 309.367188 C 305.242188 307.480469 306.011719 305.613281 306.800781 303.761719 C 307.589844 301.910156 308.398438 300.078125 309.226562 298.269531 C 310.050781 296.457031 310.894531 294.667969 311.757812 292.898438 C 312.621094 291.128906 313.5 289.382812 314.394531 287.664062 C 315.289062 285.941406 316.203125 284.246094 317.128906 282.578125 C 318.054688 280.910156 319 279.269531 319.953125 277.65625 C 320.910156 276.042969 321.882812 274.457031 322.863281 272.902344 C 323.847656 271.351562 324.84375 269.828125 325.851562 268.339844 C 326.859375 266.847656 327.878906 265.390625 328.90625 263.96875 C 329.9375 262.542969 330.976562 261.15625 332.027344 259.804688 C 333.078125 258.449219 334.132812 257.136719 335.203125 255.855469 C 336.269531 254.578125 337.34375 253.335938 338.421875 252.132812 C 339.503906 250.929688 340.589844 249.769531 341.683594 248.644531 C 342.777344 247.523438 343.875 246.441406 344.976562 245.402344 C 346.078125 244.363281 347.1875 243.363281 348.292969 242.410156 C 349.402344 241.453125 350.515625 240.542969 351.628906 239.671875 C 352.742188 238.804688 353.855469 237.980469 354.96875 237.203125 C 356.082031 236.425781 357.195312 235.691406 358.308594 235.003906 C 359.421875 234.316406 360.53125 233.675781 361.640625 233.078125 C 362.75 232.484375 363.855469 231.9375 364.957031 231.4375 C 366.058594 230.933594 367.15625 230.480469 368.25 230.078125 C 369.339844 229.671875 370.425781 229.316406 371.507812 229.003906 C 372.589844 228.695312 373.660156 228.4375 374.726562 228.226562 C 375.792969 228.011719 376.851562 227.851562 377.898438 227.738281 C 378.949219 227.621094 379.988281 227.558594 381.015625 227.542969 C 382.042969 227.527344 383.0625 227.558594 384.070312 227.640625 C 385.074219 227.722656 386.070312 227.855469 387.050781 228.035156 C 388.035156 228.214844 389 228.441406 389.957031 228.71875 Z M 389.957031 228.71875 " fill-opacity="1" fill-rule="nonzero"/><path fill="#261d1f" d="M 386.660156 261.335938 C 387.335938 261.535156 388.003906 261.765625 388.660156 262.039062 C 389.316406 262.308594 389.960938 262.613281 390.589844 262.957031 C 391.222656 263.296875 391.84375 263.675781 392.449219 264.089844 C 393.054688 264.503906 393.648438 264.957031 394.230469 265.441406 C 394.808594 265.925781 395.375 266.445312 395.925781 267 C 396.480469 267.554688 397.015625 268.144531 397.539062 268.765625 C 398.0625 269.386719 398.566406 270.042969 399.058594 270.734375 C 399.550781 271.421875 400.027344 272.144531 400.488281 272.898438 C 400.949219 273.65625 401.390625 274.441406 401.816406 275.257812 C 402.246094 276.078125 402.65625 276.925781 403.046875 277.804688 C 403.441406 278.683594 403.816406 279.59375 404.175781 280.53125 C 404.53125 281.46875 404.871094 282.4375 405.195312 283.429688 C 405.515625 284.425781 405.820312 285.449219 406.105469 286.5 C 406.390625 287.546875 406.660156 288.625 406.90625 289.726562 C 407.15625 290.828125 407.382812 291.953125 407.59375 293.105469 C 407.804688 294.257812 407.996094 295.429688 408.167969 296.628906 C 408.339844 297.824219 408.492188 299.046875 408.625 300.285156 C 408.757812 301.527344 408.875 302.789062 408.96875 304.070312 C 409.0625 305.351562 409.136719 306.652344 409.191406 307.972656 C 409.246094 309.292969 409.28125 310.628906 409.296875 311.984375 C 409.3125 313.335938 409.304688 314.707031 409.28125 316.09375 C 409.257812 317.476562 409.214844 318.875 409.148438 320.289062 C 409.085938 321.703125 409.003906 323.128906 408.898438 324.566406 C 408.796875 326 408.675781 327.449219 408.53125 328.90625 C 408.390625 330.367188 408.230469 331.832031 408.046875 333.308594 C 407.867188 334.785156 407.667969 336.265625 407.449219 337.757812 C 407.230469 339.246094 406.992188 340.742188 406.734375 342.242188 C 406.476562 343.742188 406.203125 345.242188 405.910156 346.75 C 405.613281 348.257812 405.300781 349.765625 404.972656 351.273438 C 404.640625 352.785156 404.292969 354.292969 403.925781 355.800781 C 403.5625 357.3125 403.179688 358.820312 402.777344 360.324219 C 402.375 361.828125 401.957031 363.328125 401.523438 364.824219 C 401.089844 366.324219 400.640625 367.8125 400.171875 369.300781 C 399.703125 370.785156 399.222656 372.261719 398.722656 373.734375 C 398.222656 375.203125 397.710938 376.664062 397.179688 378.117188 C 396.652344 379.566406 396.105469 381.007812 395.546875 382.4375 C 394.992188 383.867188 394.417969 385.285156 393.832031 386.691406 C 393.246094 388.09375 392.644531 389.484375 392.035156 390.859375 C 391.421875 392.234375 390.796875 393.59375 390.160156 394.9375 C 389.519531 396.28125 388.871094 397.605469 388.210938 398.914062 C 387.550781 400.222656 386.878906 401.507812 386.195312 402.777344 C 385.511719 404.046875 384.820312 405.296875 384.117188 406.523438 C 383.414062 407.75 382.703125 408.957031 381.980469 410.136719 C 381.261719 411.320312 380.53125 412.480469 379.792969 413.617188 C 379.054688 414.75 378.308594 415.859375 377.558594 416.945312 C 376.804688 418.03125 376.046875 419.089844 375.28125 420.121094 C 374.515625 421.15625 373.742188 422.160156 372.964844 423.136719 C 372.1875 424.113281 371.40625 425.0625 370.621094 425.980469 C 369.832031 426.898438 369.042969 427.789062 368.25 428.648438 C 367.453125 429.507812 366.65625 430.335938 365.859375 431.132812 C 365.058594 431.933594 364.257812 432.699219 363.453125 433.429688 C 362.652344 434.164062 361.847656 434.867188 361.042969 435.535156 C 360.238281 436.203125 359.433594 436.835938 358.628906 437.4375 C 357.824219 438.039062 357.019531 438.605469 356.214844 439.136719 C 355.414062 439.667969 354.613281 440.167969 353.8125 440.628906 C 353.015625 441.089844 352.21875 441.515625 351.429688 441.90625 C 350.636719 442.300781 349.847656 442.652344 349.0625 442.972656 C 348.277344 443.292969 347.5 443.574219 346.722656 443.820312 C 345.949219 444.066406 345.179688 444.277344 344.417969 444.449219 C 343.652344 444.621094 342.898438 444.757812 342.148438 444.859375 C 341.398438 444.957031 340.65625 445.019531 339.921875 445.042969 C 339.1875 445.070312 338.460938 445.058594 337.746094 445.007812 C 337.027344 444.957031 336.320312 444.871094 335.621094 444.75 C 334.921875 444.625 334.234375 444.464844 333.558594 444.269531 C 332.878906 444.074219 332.214844 443.839844 331.558594 443.570312 C 330.902344 443.300781 330.257812 442.992188 329.625 442.652344 C 328.996094 442.308594 328.375 441.929688 327.769531 441.515625 C 327.160156 441.101562 326.566406 440.652344 325.988281 440.167969 C 325.40625 439.683594 324.84375 439.164062 324.289062 438.609375 C 323.738281 438.054688 323.199219 437.464844 322.679688 436.839844 C 322.15625 436.21875 321.648438 435.5625 321.15625 434.871094 C 320.664062 434.183594 320.191406 433.460938 319.730469 432.707031 C 319.269531 431.953125 318.828125 431.164062 318.398438 430.347656 C 317.972656 429.53125 317.5625 428.679688 317.167969 427.800781 C 316.777344 426.921875 316.402344 426.015625 316.042969 425.078125 C 315.683594 424.136719 315.34375 423.171875 315.023438 422.175781 C 314.699219 421.179688 314.398438 420.15625 314.113281 419.109375 C 313.824219 418.058594 313.558594 416.984375 313.3125 415.882812 C 313.0625 414.78125 312.832031 413.652344 312.621094 412.503906 C 312.414062 411.351562 312.222656 410.175781 312.050781 408.980469 C 311.878906 407.78125 311.722656 406.5625 311.589844 405.320312 C 311.457031 404.078125 311.34375 402.816406 311.25 401.535156 C 311.15625 400.253906 311.082031 398.953125 311.027344 397.632812 C 310.972656 396.3125 310.9375 394.976562 310.921875 393.625 C 310.90625 392.269531 310.910156 390.898438 310.933594 389.515625 C 310.960938 388.128906 311.003906 386.730469 311.066406 385.316406 C 311.132812 383.90625 311.214844 382.480469 311.316406 381.042969 C 311.421875 379.605469 311.542969 378.15625 311.683594 376.699219 C 311.828125 375.242188 311.988281 373.773438 312.167969 372.296875 C 312.351562 370.824219 312.550781 369.339844 312.769531 367.851562 C 312.988281 366.359375 313.226562 364.867188 313.484375 363.367188 C 313.738281 361.867188 314.015625 360.363281 314.308594 358.855469 C 314.601562 357.351562 314.914062 355.84375 315.246094 354.332031 C 315.574219 352.824219 315.925781 351.3125 316.289062 349.804688 C 316.65625 348.296875 317.039062 346.789062 317.441406 345.285156 C 317.839844 343.777344 318.257812 342.277344 318.691406 340.78125 C 319.128906 339.285156 319.578125 337.792969 320.046875 336.308594 C 320.511719 334.824219 320.996094 333.34375 321.496094 331.875 C 321.992188 330.402344 322.507812 328.941406 323.035156 327.492188 C 323.566406 326.039062 324.109375 324.597656 324.667969 323.167969 C 325.226562 321.738281 325.800781 320.320312 326.386719 318.917969 C 326.972656 317.511719 327.570312 316.125 328.183594 314.746094 C 328.796875 313.371094 329.421875 312.011719 330.058594 310.671875 C 330.695312 309.328125 331.34375 308 332.007812 306.695312 C 332.667969 305.386719 333.339844 304.097656 334.019531 302.828125 C 334.703125 301.558594 335.398438 300.3125 336.097656 299.082031 C 336.800781 297.855469 337.515625 296.652344 338.234375 295.46875 C 338.957031 294.285156 339.6875 293.125 340.421875 291.992188 C 341.160156 290.855469 341.90625 289.746094 342.660156 288.660156 C 343.414062 287.574219 344.171875 286.515625 344.9375 285.484375 C 345.703125 284.453125 346.476562 283.449219 347.253906 282.46875 C 348.027344 281.492188 348.8125 280.546875 349.597656 279.625 C 350.382812 278.707031 351.175781 277.816406 351.96875 276.957031 C 352.761719 276.097656 353.558594 275.269531 354.359375 274.472656 C 355.160156 273.675781 355.960938 272.910156 356.761719 272.175781 C 357.566406 271.441406 358.371094 270.742188 359.175781 270.074219 C 359.980469 269.40625 360.785156 268.769531 361.589844 268.167969 C 362.394531 267.570312 363.199219 267.003906 364 266.46875 C 364.804688 265.9375 365.605469 265.441406 366.402344 264.980469 C 367.203125 264.515625 367.996094 264.089844 368.789062 263.699219 C 369.582031 263.308594 370.371094 262.953125 371.15625 262.632812 C 371.941406 262.316406 372.71875 262.03125 373.492188 261.785156 C 374.269531 261.539062 375.039062 261.328125 375.800781 261.15625 C 376.5625 260.984375 377.320312 260.847656 378.070312 260.75 C 378.820312 260.648438 379.5625 260.589844 380.296875 260.5625 C 381.03125 260.539062 381.753906 260.550781 382.472656 260.597656 C 383.1875 260.648438 383.898438 260.734375 384.59375 260.859375 C 385.292969 260.980469 385.980469 261.140625 386.660156 261.335938 Z M 386.660156 261.335938 " fill-opacity="1" fill-rule="nonzero"/><path fill="#ea394a" d="M 498.085938 335.402344 C 498.085938 335.402344 521.472656 361.214844 504.078125 404.335938 C 486.683594 447.457031 465.34375 446.125 465.34375 446.125 L 474.285156 451.175781 C 474.285156 451.175781 517.433594 456.308594 531.515625 457.914062 C 580.492188 463.5 596.742188 387 566.460938 369.117188 C 553.71875 361.589844 509.492188 337.414062 509.492188 337.414062 Z M 498.085938 335.402344 " fill-opacity="1" fill-rule="nonzero"/><path fill="#e8ebed" d="M 436.867188 594.875 L 455.207031 596.671875 C 459.429688 597.085938 462.457031 600.933594 461.859375 605.136719 L 460.210938 616.804688 C 459.648438 620.78125 456.039062 623.59375 452.046875 623.175781 L 433.710938 621.242188 C 429.507812 620.796875 426.511719 616.953125 427.109375 612.769531 L 428.757812 601.242188 C 429.320312 597.292969 432.894531 594.488281 436.867188 594.875 Z M 436.867188 594.875 " fill-opacity="1" fill-rule="nonzero"/><path fill="#e8ebed" d="M 479.078125 599.019531 L 498.265625 600.914062 C 502.488281 601.332031 505.511719 605.183594 504.914062 609.386719 L 503.210938 621.367188 C 502.648438 625.34375 499.035156 628.15625 495.042969 627.734375 L 476.109375 625.726562 C 471.96875 625.289062 468.988281 621.542969 469.492188 617.410156 L 470.941406 605.539062 C 471.433594 601.515625 475.046875 598.625 479.078125 599.019531 Z M 479.078125 599.019531 " fill-opacity="1" fill-rule="nonzero"/><path fill="#e8ebed" d="M 522.132812 603.273438 L 540.742188 605.113281 C 544.925781 605.527344 547.941406 609.3125 547.402344 613.484375 L 545.816406 625.816406 C 545.296875 629.835938 541.660156 632.707031 537.628906 632.277344 L 519.105469 630.296875 C 514.964844 629.855469 511.988281 626.105469 512.496094 621.972656 L 513.996094 609.78125 C 514.492188 605.761719 518.101562 602.875 522.132812 603.273438 Z M 522.132812 603.273438 " fill-opacity="1" fill-rule="nonzero"/><path fill="#e8ebed" d="M 593.710938 618.101562 L 591.984375 630.761719 C 591.4375 634.753906 587.820312 637.59375 583.8125 637.167969 L 561.707031 634.839844 C 557.597656 634.40625 554.625 630.714844 555.074219 626.609375 L 556.453125 614.070312 C 556.898438 610.011719 560.527344 607.0625 564.59375 607.464844 L 587.050781 609.671875 C 591.257812 610.085938 594.28125 613.910156 593.710938 618.101562 Z M 593.710938 618.101562 " fill-opacity="1" fill-rule="nonzero"/><path fill="#ea394a" d="M 275.355469 533.605469 L 304.261719 523.53125 C 305.078125 523.25 305.910156 523.046875 306.765625 522.925781 C 307.617188 522.808594 308.476562 522.773438 309.335938 522.820312 C 310.195312 522.871094 311.042969 523.003906 311.878906 523.21875 C 312.714844 523.4375 313.519531 523.730469 314.292969 524.105469 C 315.070312 524.480469 315.804688 524.929688 316.492188 525.449219 C 317.179688 525.96875 317.808594 526.550781 318.382812 527.191406 C 318.957031 527.835938 319.464844 528.53125 319.898438 529.273438 C 320.335938 530.015625 320.699219 530.792969 320.980469 531.609375 L 326.960938 548.761719 C 327.246094 549.578125 327.445312 550.410156 327.566406 551.265625 C 327.683594 552.117188 327.71875 552.976562 327.671875 553.835938 C 327.621094 554.695312 327.488281 555.542969 327.273438 556.378906 C 327.054688 557.210938 326.761719 558.019531 326.386719 558.792969 C 326.011719 559.570312 325.5625 560.300781 325.042969 560.992188 C 324.523438 561.679688 323.941406 562.308594 323.300781 562.882812 C 322.65625 563.457031 321.960938 563.960938 321.21875 564.398438 C 320.476562 564.835938 319.699219 565.195312 318.882812 565.480469 L 289.980469 575.554688 C 289.164062 575.839844 288.332031 576.042969 287.476562 576.160156 C 286.625 576.28125 285.765625 576.316406 284.90625 576.265625 C 284.042969 576.214844 283.195312 576.082031 282.363281 575.867188 C 281.527344 575.652344 280.722656 575.355469 279.945312 574.980469 C 279.171875 574.605469 278.4375 574.160156 277.75 573.640625 C 277.0625 573.121094 276.429688 572.539062 275.855469 571.894531 C 275.285156 571.25 274.777344 570.558594 274.339844 569.816406 C 273.902344 569.070312 273.542969 568.292969 273.261719 567.480469 L 267.28125 550.324219 C 266.996094 549.511719 266.796875 548.675781 266.675781 547.824219 C 266.558594 546.96875 266.523438 546.113281 266.570312 545.253906 C 266.621094 544.390625 266.753906 543.542969 266.96875 542.710938 C 267.1875 541.875 267.480469 541.070312 267.855469 540.292969 C 268.230469 539.515625 268.679688 538.785156 269.199219 538.097656 C 269.71875 537.410156 270.296875 536.777344 270.941406 536.203125 C 271.585938 535.628906 272.277344 535.125 273.023438 534.6875 C 273.765625 534.25 274.542969 533.890625 275.355469 533.605469 Z M 275.355469 533.605469 " fill-opacity="1" fill-rule="nonzero"/><path fill="#2f0378" d="M 175.769531 466.042969 L 204.050781 454.335938 C 204.847656 454.003906 205.667969 453.753906 206.515625 453.585938 C 207.359375 453.417969 208.214844 453.335938 209.074219 453.335938 C 209.9375 453.335938 210.792969 453.421875 211.636719 453.589844 C 212.480469 453.757812 213.304688 454.007812 214.097656 454.335938 C 214.894531 454.664062 215.652344 455.070312 216.367188 455.550781 C 217.085938 456.027344 217.75 456.574219 218.359375 457.183594 C 218.96875 457.792969 219.511719 458.457031 219.992188 459.171875 C 220.46875 459.890625 220.875 460.644531 221.203125 461.441406 L 228.152344 478.226562 C 228.480469 479.023438 228.730469 479.84375 228.898438 480.691406 C 229.066406 481.535156 229.152344 482.390625 229.152344 483.25 C 229.152344 484.113281 229.066406 484.96875 228.898438 485.8125 C 228.730469 486.660156 228.480469 487.480469 228.152344 488.277344 C 227.820312 489.070312 227.417969 489.828125 226.9375 490.546875 C 226.457031 491.261719 225.914062 491.925781 225.304688 492.535156 C 224.695312 493.144531 224.03125 493.6875 223.3125 494.167969 C 222.597656 494.644531 221.839844 495.050781 221.042969 495.378906 L 192.761719 507.089844 C 191.964844 507.417969 191.144531 507.667969 190.296875 507.835938 C 189.453125 508.003906 188.597656 508.089844 187.738281 508.085938 C 186.875 508.085938 186.019531 508.003906 185.175781 507.835938 C 184.332031 507.667969 183.507812 507.417969 182.710938 507.085938 C 181.917969 506.757812 181.160156 506.351562 180.441406 505.875 C 179.726562 505.394531 179.0625 504.851562 178.453125 504.242188 C 177.84375 503.632812 177.300781 502.96875 176.820312 502.25 C 176.34375 501.535156 175.9375 500.777344 175.609375 499.980469 L 168.660156 483.195312 C 168.328125 482.398438 168.082031 481.578125 167.914062 480.734375 C 167.746094 479.886719 167.660156 479.035156 167.660156 478.171875 C 167.660156 477.308594 167.746094 476.457031 167.914062 475.609375 C 168.082031 474.765625 168.332031 473.945312 168.660156 473.148438 C 168.992188 472.351562 169.394531 471.59375 169.875 470.878906 C 170.355469 470.160156 170.898438 469.5 171.507812 468.890625 C 172.117188 468.28125 172.78125 467.734375 173.496094 467.257812 C 174.214844 466.777344 174.972656 466.375 175.769531 466.042969 Z M 175.769531 466.042969 " fill-opacity="1" fill-rule="nonzero"/><path fill="#ea394a" d="M 309.578125 163.855469 L 338.976562 172.390625 C 339.800781 172.628906 340.597656 172.949219 341.363281 173.347656 C 342.128906 173.742188 342.847656 174.210938 343.519531 174.75 C 344.195312 175.289062 344.808594 175.886719 345.363281 176.546875 C 345.917969 177.207031 346.402344 177.914062 346.816406 178.671875 C 347.234375 179.425781 347.570312 180.214844 347.832031 181.035156 C 348.089844 181.859375 348.269531 182.699219 348.363281 183.554688 C 348.457031 184.410156 348.46875 185.269531 348.394531 186.128906 C 348.320312 186.988281 348.164062 187.828125 347.921875 188.65625 L 342.859375 206.105469 C 342.617188 206.933594 342.300781 207.726562 341.902344 208.492188 C 341.503906 209.257812 341.039062 209.976562 340.5 210.652344 C 339.960938 211.324219 339.359375 211.9375 338.699219 212.492188 C 338.039062 213.046875 337.332031 213.53125 336.578125 213.949219 C 335.824219 214.363281 335.035156 214.699219 334.210938 214.960938 C 333.390625 215.222656 332.550781 215.398438 331.695312 215.492188 C 330.835938 215.589844 329.980469 215.597656 329.121094 215.523438 C 328.261719 215.449219 327.417969 215.292969 326.589844 215.050781 L 297.191406 206.519531 C 296.363281 206.277344 295.570312 205.960938 294.804688 205.5625 C 294.039062 205.164062 293.320312 204.699219 292.644531 204.160156 C 291.972656 203.621094 291.359375 203.019531 290.804688 202.359375 C 290.25 201.699219 289.765625 200.992188 289.347656 200.238281 C 288.933594 199.484375 288.597656 198.695312 288.335938 197.871094 C 288.074219 197.050781 287.898438 196.210938 287.804688 195.355469 C 287.707031 194.496094 287.699219 193.640625 287.773438 192.78125 C 287.847656 191.921875 288.003906 191.078125 288.246094 190.25 L 293.308594 172.804688 C 293.550781 171.976562 293.867188 171.179688 294.265625 170.414062 C 294.664062 169.648438 295.128906 168.929688 295.667969 168.257812 C 296.207031 167.585938 296.808594 166.972656 297.46875 166.417969 C 298.125 165.863281 298.835938 165.375 299.589844 164.960938 C 300.34375 164.546875 301.132812 164.207031 301.957031 163.949219 C 302.777344 163.6875 303.617188 163.511719 304.472656 163.414062 C 305.332031 163.320312 306.1875 163.308594 307.046875 163.382812 C 307.90625 163.457031 308.75 163.617188 309.578125 163.855469 Z M 309.578125 163.855469 " fill-opacity="1" fill-rule="nonzero"/><path fill="#f7f8f9" d="M 307.082031 541.035156 C 310.035156 549.511719 301.027344 560.863281 301.027344 560.863281 C 301.027344 560.863281 286.730469 557.027344 283.964844 549.09375 C 281.625 542.375 292.15625 537.65625 295.132812 544.03125 L 295.203125 544.007812 C 293.5625 537.164062 304.742188 534.316406 307.082031 541.035156 Z M 307.082031 541.035156 " fill-opacity="1" fill-rule="nonzero"/><path fill="#ea394a" d="M 228.3125 255.121094 L 258.546875 259.902344 C 259.398438 260.035156 260.230469 260.25 261.039062 260.550781 C 261.847656 260.847656 262.621094 261.222656 263.355469 261.671875 C 264.089844 262.121094 264.773438 262.640625 265.40625 263.226562 C 266.039062 263.808594 266.609375 264.453125 267.117188 265.148438 C 267.625 265.847656 268.058594 266.585938 268.417969 267.367188 C 268.78125 268.152344 269.0625 268.960938 269.265625 269.800781 C 269.464844 270.636719 269.582031 271.488281 269.617188 272.351562 C 269.652344 273.210938 269.601562 274.066406 269.464844 274.917969 L 266.628906 292.863281 C 266.496094 293.714844 266.277344 294.542969 265.980469 295.351562 C 265.683594 296.160156 265.308594 296.933594 264.855469 297.667969 C 264.40625 298.402344 263.890625 299.089844 263.304688 299.722656 C 262.71875 300.355469 262.078125 300.925781 261.382812 301.433594 C 260.683594 301.9375 259.945312 302.371094 259.160156 302.734375 C 258.378906 303.09375 257.566406 303.375 256.730469 303.578125 C 255.890625 303.777344 255.042969 303.898438 254.179688 303.929688 C 253.320312 303.964844 252.460938 303.914062 251.609375 303.78125 L 221.375 299 C 220.523438 298.863281 219.695312 298.648438 218.886719 298.351562 C 218.074219 298.050781 217.304688 297.679688 216.570312 297.226562 C 215.832031 296.777344 215.148438 296.257812 214.515625 295.675781 C 213.882812 295.089844 213.3125 294.449219 212.804688 293.75 C 212.300781 293.054688 211.867188 292.3125 211.503906 291.53125 C 211.144531 290.75 210.863281 289.9375 210.660156 289.101562 C 210.457031 288.261719 210.339844 287.410156 210.308594 286.550781 C 210.273438 285.6875 210.324219 284.832031 210.457031 283.980469 L 213.296875 266.039062 C 213.429688 265.1875 213.644531 264.355469 213.945312 263.546875 C 214.242188 262.738281 214.617188 261.964844 215.066406 261.230469 C 215.515625 260.496094 216.035156 259.8125 216.621094 259.179688 C 217.203125 258.546875 217.847656 257.976562 218.542969 257.46875 C 219.242188 256.960938 219.980469 256.527344 220.761719 256.167969 C 221.546875 255.804688 222.355469 255.523438 223.195312 255.324219 C 224.03125 255.121094 224.882812 255.003906 225.742188 254.96875 C 226.605469 254.933594 227.460938 254.984375 228.3125 255.121094 Z M 228.3125 255.121094 " fill-opacity="1" fill-rule="nonzero"/><path fill="#ea394a" d="M 152.269531 362.074219 L 182.6875 358.640625 C 183.542969 358.542969 184.402344 358.53125 185.261719 358.601562 C 186.121094 358.675781 186.964844 358.832031 187.792969 359.070312 C 188.621094 359.308594 189.417969 359.625 190.183594 360.019531 C 190.949219 360.414062 191.671875 360.882812 192.34375 361.417969 C 193.019531 361.957031 193.632812 362.554688 194.191406 363.214844 C 194.746094 363.871094 195.234375 364.578125 195.648438 365.332031 C 196.066406 366.085938 196.40625 366.875 196.667969 367.695312 C 196.929688 368.515625 197.109375 369.355469 197.207031 370.210938 L 199.246094 388.265625 C 199.339844 389.121094 199.355469 389.980469 199.28125 390.835938 C 199.210938 391.695312 199.054688 392.539062 198.816406 393.367188 C 198.578125 394.199219 198.261719 394.996094 197.863281 395.761719 C 197.46875 396.527344 197.003906 397.246094 196.464844 397.921875 C 195.929688 398.59375 195.332031 399.210938 194.671875 399.765625 C 194.011719 400.324219 193.308594 400.808594 192.550781 401.226562 C 191.796875 401.644531 191.011719 401.984375 190.1875 402.246094 C 189.367188 402.507812 188.527344 402.6875 187.671875 402.785156 L 157.253906 406.21875 C 156.398438 406.316406 155.539062 406.328125 154.679688 406.253906 C 153.820312 406.183594 152.976562 406.027344 152.148438 405.789062 C 151.320312 405.550781 150.523438 405.234375 149.757812 404.835938 C 148.992188 404.441406 148.273438 403.976562 147.597656 403.4375 C 146.921875 402.902344 146.308594 402.304688 145.753906 401.644531 C 145.195312 400.984375 144.710938 400.28125 144.292969 399.523438 C 143.875 398.769531 143.535156 397.984375 143.273438 397.160156 C 143.011719 396.339844 142.832031 395.5 142.734375 394.644531 L 140.695312 376.59375 C 140.601562 375.738281 140.589844 374.878906 140.660156 374.019531 C 140.734375 373.160156 140.886719 372.316406 141.125 371.488281 C 141.363281 370.660156 141.683594 369.863281 142.078125 369.097656 C 142.472656 368.332031 142.9375 367.609375 143.476562 366.9375 C 144.015625 366.261719 144.613281 365.648438 145.269531 365.089844 C 145.929688 364.535156 146.636719 364.046875 147.390625 363.632812 C 148.144531 363.214844 148.933594 362.875 149.753906 362.613281 C 150.574219 362.351562 151.414062 362.171875 152.269531 362.074219 Z M 152.269531 362.074219 " fill-opacity="1" fill-rule="nonzero"/><path fill="#f7f8f9" d="M 252.765625 276.660156 C 251.363281 285.523438 238.0625 291.269531 238.0625 291.269531 C 238.0625 291.269531 227.273438 281.132812 228.585938 272.835938 C 229.695312 265.808594 241.210938 266.625 240.820312 273.648438 L 240.890625 273.660156 C 242.679688 266.855469 253.875 269.628906 252.765625 276.660156 Z M 252.765625 276.660156 " fill-opacity="1" fill-rule="nonzero"/><path fill="#2f0378" d="M 179.320312 174.425781 L 202.957031 178.164062 C 203.625 178.269531 204.273438 178.4375 204.90625 178.671875 C 205.535156 178.902344 206.140625 179.195312 206.714844 179.546875 C 207.289062 179.898438 207.824219 180.304688 208.316406 180.761719 C 208.8125 181.21875 209.257812 181.71875 209.65625 182.265625 C 210.050781 182.808594 210.390625 183.386719 210.671875 184 C 210.953125 184.609375 211.171875 185.242188 211.332031 185.898438 C 211.488281 186.554688 211.582031 187.21875 211.605469 187.890625 C 211.632812 188.5625 211.59375 189.234375 211.488281 189.898438 L 209.269531 203.929688 C 209.164062 204.59375 208.996094 205.242188 208.761719 205.875 C 208.53125 206.507812 208.238281 207.113281 207.886719 207.6875 C 207.535156 208.261719 207.128906 208.792969 206.671875 209.289062 C 206.214844 209.785156 205.714844 210.230469 205.171875 210.625 C 204.625 211.023438 204.046875 211.359375 203.433594 211.644531 C 202.824219 211.925781 202.191406 212.144531 201.535156 212.300781 C 200.878906 212.460938 200.214844 212.550781 199.542969 212.578125 C 198.871094 212.605469 198.199219 212.566406 197.535156 212.460938 L 173.898438 208.722656 C 173.230469 208.617188 172.582031 208.449219 171.949219 208.214844 C 171.320312 207.984375 170.714844 207.691406 170.140625 207.339844 C 169.566406 206.988281 169.03125 206.582031 168.539062 206.125 C 168.042969 205.667969 167.597656 205.167969 167.203125 204.621094 C 166.804688 204.078125 166.464844 203.5 166.183594 202.886719 C 165.902344 202.277344 165.683594 201.644531 165.523438 200.988281 C 165.367188 200.332031 165.273438 199.667969 165.25 198.996094 C 165.222656 198.324219 165.261719 197.652344 165.367188 196.988281 L 167.585938 182.957031 C 167.691406 182.292969 167.859375 181.640625 168.09375 181.011719 C 168.324219 180.378906 168.617188 179.773438 168.96875 179.199219 C 169.320312 178.625 169.726562 178.089844 170.183594 177.597656 C 170.640625 177.101562 171.140625 176.65625 171.6875 176.261719 C 172.230469 175.863281 172.808594 175.527344 173.421875 175.242188 C 174.03125 174.960938 174.664062 174.742188 175.320312 174.582031 C 175.976562 174.425781 176.640625 174.335938 177.3125 174.308594 C 177.984375 174.28125 178.65625 174.320312 179.320312 174.425781 Z M 179.320312 174.425781 " fill-opacity="1" fill-rule="nonzero"/><path fill="#f7f8f9" d="M 198.433594 191.261719 C 197.339844 198.191406 186.941406 202.683594 186.941406 202.683594 C 186.941406 202.683594 178.511719 194.757812 179.535156 188.273438 C 180.40625 182.78125 189.402344 183.421875 189.097656 188.910156 L 189.15625 188.917969 C 190.550781 183.601562 199.304688 185.769531 198.433594 191.261719 Z M 198.433594 191.261719 " fill-opacity="1" fill-rule="nonzero"/><path fill="#f7f8f9" d="M 305.347656 193.25 L 307.402344 186.171875 C 307.601562 185.476562 308.328125 185.070312 309.03125 185.261719 L 309.488281 185.386719 C 310.398438 185.636719 311.363281 185.523438 312.195312 185.078125 C 312.933594 184.683594 313.9375 184.226562 315.742188 183.804688 C 317.109375 183.484375 317.609375 182.027344 318.894531 179.9375 C 319.414062 179.09375 319.894531 178.226562 320.21875 177.695312 C 322.550781 173.910156 326.585938 175.796875 324.683594 179.191406 C 323.703125 180.941406 322.171875 183.441406 321.898438 184.675781 C 323.65625 185.886719 328.183594 187.804688 328.46875 189.492188 C 328.878906 191.921875 327.730469 195.527344 327.03125 196.921875 C 326.085938 198.796875 325.339844 199.90625 322.714844 202.039062 C 321.210938 203.261719 319.492188 202.675781 313.574219 200.859375 C 309.980469 199.753906 308.652344 198 308.164062 196.792969 C 307.800781 195.902344 307.101562 195.191406 306.191406 194.878906 C 305.519531 194.648438 305.148438 193.929688 305.347656 193.25 Z M 305.347656 193.25 " fill-opacity="1" fill-rule="nonzero"/><path fill="#f7f8f9" d="M 209.835938 475.261719 C 212.011719 480.519531 208.578125 486.886719 202.191406 489.53125 C 201.015625 490.015625 199.859375 490.332031 198.699219 490.515625 C 198.464844 490.554688 198.242188 490.648438 198.054688 490.792969 L 192.394531 495.214844 C 191.929688 495.578125 191.25 495.292969 191.179688 494.710938 L 190.605469 489.78125 C 190.554688 489.371094 190.328125 489.007812 189.984375 488.78125 C 188.539062 487.828125 187.382812 486.492188 186.699219 484.84375 C 184.523438 479.585938 187.957031 473.21875 194.34375 470.574219 C 200.730469 467.929688 207.660156 470.007812 209.835938 475.261719 Z M 209.835938 475.261719 " fill-opacity="1" fill-rule="nonzero"/><path fill="#e8ebed" d="M 162.160156 374.304688 L 164.21875 392.535156 L 178.183594 382.003906 Z M 162.160156 374.304688 " fill-opacity="1" fill-rule="nonzero"/><g clip-path="url(#21fae044fc)"><g clip-path="url(#314e2d5008)"><g clip-path="url(#4efcafc3f7)"><path fill="#ea394a" d="M 452.851562 116.320312 C 458.359375 135.828125 447.007812 156.105469 427.5 161.613281 C 407.992188 167.117188 387.714844 155.769531 382.207031 136.261719 C 376.703125 116.753906 388.054688 96.472656 407.5625 90.96875 C 427.070312 85.460938 447.347656 96.8125 452.851562 116.320312 Z M 452.851562 116.320312 " fill-opacity="1" fill-rule="nonzero"/></g></g></g><g clip-path="url(#e733becda9)"><g clip-path="url(#8a0128ee25)"><g clip-path="url(#22784ab752)"><path fill="#ffffff" d="M 399.226562 112.460938 L 426.613281 104.730469 C 429.214844 103.996094 431.941406 105.523438 432.675781 108.125 L 440.40625 135.511719 C 441.140625 138.113281 439.613281 140.839844 437.011719 141.570312 L 409.625 149.300781 C 407.023438 150.035156 404.296875 148.511719 403.5625 145.910156 L 395.832031 118.523438 C 395.097656 115.921875 396.625 113.195312 399.226562 112.460938 Z M 422.492188 110.3125 C 421.578125 110.570312 421.042969 111.527344 421.300781 112.441406 L 422.421875 116.410156 C 422.679688 117.324219 423.636719 117.859375 424.550781 117.601562 L 428.710938 116.425781 C 429.625 116.167969 430.160156 115.210938 429.902344 114.296875 L 428.785156 110.328125 C 428.527344 109.417969 427.566406 108.878906 426.65625 109.136719 Z M 431.574219 120.152344 L 428.332031 121.066406 C 428.921875 121.984375 429.386719 122.996094 429.699219 124.097656 C 431.425781 130.222656 427.699219 136.640625 421.375 138.425781 C 415.050781 140.210938 408.519531 136.6875 406.792969 130.5625 C 406.480469 129.460938 406.351562 128.355469 406.371094 127.265625 L 402.992188 128.21875 L 407.382812 143.785156 C 407.609375 144.589844 408.453125 145.058594 409.257812 144.832031 L 434.914062 137.589844 C 435.722656 137.363281 436.195312 136.523438 435.964844 135.714844 Z M 416.105469 119.757812 C 412.023438 120.910156 409.613281 125.054688 410.734375 129.015625 C 411.851562 132.976562 416.070312 135.25 420.15625 134.097656 C 424.242188 132.945312 426.648438 128.796875 425.53125 124.839844 C 424.414062 120.878906 420.195312 118.605469 416.105469 119.757812 Z M 416.105469 119.757812 " fill-opacity="1" fill-rule="nonzero"/></g></g></g><g mask="url(#e96fe5090e)"><g transform="matrix(1, 0, 0, 1, 167, 537)"><g clip-path="url(#7b34b73310)"><g clip-path="url(#6df61e1c38)"><g clip-path="url(#9f7e49e1f9)"><g clip-path="url(#b72cf2992b)"><path fill="#ea394a" d="M 71.875 51.667969 C 73.378906 50.921875 73.992188 49.101562 73.25 47.597656 L 51.539062 3.710938 C 50.792969 2.207031 48.972656 1.589844 47.46875 2.335938 L 3.582031 24.046875 C 2.078125 24.792969 1.460938 26.613281 2.207031 28.117188 L 23.917969 72.003906 C 24.664062 73.507812 26.484375 74.125 27.988281 73.378906 Z M 71.875 51.667969 " fill-opacity="1" fill-rule="nonzero"/></g></g></g><g clip-path="url(#c2e2b9c54b)"><g clip-path="url(#bba839d153)"><g clip-path="url(#772d70a057)"><path fill="#ffffff" d="M 59.304688 57.886719 L 49.851562 38.78125 L 56.265625 35.609375 L 53.542969 27.691406 L 46.167969 31.335938 L 43.816406 26.585938 C 42.75 24.429688 42.621094 22.664062 45.714844 21.132812 L 49.65625 19.183594 L 46.359375 12.523438 C 45.632812 12.769531 43.191406 13.726562 40.46875 15.070312 C 34.785156 17.882812 32.613281 23.277344 35.765625 29.652344 L 38.480469 35.140625 L 32.050781 38.320312 L 35.734375 45.765625 L 42.164062 42.585938 L 51.613281 61.691406 Z M 59.304688 57.886719 " fill-opacity="1" fill-rule="nonzero"/></g></g></g></g></g></g><g clip-path="url(#cc64eb1e36)"><path fill="#ea394a" d="M 167.847656 309.128906 C 167.847656 313.941406 163.945312 317.84375 159.132812 317.84375 L 119.203125 317.84375 C 114.390625 317.84375 110.488281 313.941406 110.488281 309.128906 L 110.488281 269.199219 C 110.488281 264.386719 114.390625 260.484375 119.203125 260.484375 L 159.132812 260.484375 C 163.945312 260.484375 167.847656 264.386719 167.847656 269.199219 Z M 167.847656 309.128906 " fill-opacity="1" fill-rule="nonzero"/></g><path fill="#ffffff" d="M 133.167969 280.949219 C 133.167969 281.230469 133.140625 281.507812 133.085938 281.785156 C 133.03125 282.058594 132.953125 282.328125 132.84375 282.585938 C 132.734375 282.847656 132.605469 283.09375 132.449219 283.328125 C 132.292969 283.5625 132.113281 283.777344 131.914062 283.976562 C 131.714844 284.175781 131.5 284.355469 131.265625 284.511719 C 131.03125 284.667969 130.785156 284.796875 130.523438 284.90625 C 130.265625 285.015625 129.996094 285.09375 129.71875 285.148438 C 129.445312 285.207031 129.167969 285.234375 128.882812 285.234375 C 128.601562 285.234375 128.324219 285.207031 128.046875 285.148438 C 127.773438 285.09375 127.503906 285.015625 127.246094 284.90625 C 126.984375 284.796875 126.738281 284.667969 126.503906 284.511719 C 126.269531 284.355469 126.054688 284.175781 125.855469 283.976562 C 125.65625 283.777344 125.476562 283.5625 125.320312 283.328125 C 125.164062 283.09375 125.035156 282.847656 124.925781 282.585938 C 124.816406 282.328125 124.738281 282.058594 124.683594 281.785156 C 124.628906 281.507812 124.601562 281.230469 124.601562 280.949219 C 124.601562 280.667969 124.628906 280.386719 124.683594 280.113281 C 124.738281 279.835938 124.816406 279.566406 124.925781 279.308594 C 125.035156 279.046875 125.164062 278.800781 125.320312 278.566406 C 125.476562 278.332031 125.65625 278.117188 125.855469 277.917969 C 126.054688 277.71875 126.269531 277.539062 126.503906 277.382812 C 126.738281 277.226562 126.984375 277.097656 127.246094 276.988281 C 127.503906 276.882812 127.773438 276.800781 128.046875 276.746094 C 128.324219 276.691406 128.601562 276.664062 128.882812 276.664062 C 129.167969 276.664062 129.445312 276.691406 129.71875 276.746094 C 129.996094 276.800781 130.265625 276.882812 130.523438 276.988281 C 130.785156 277.097656 131.03125 277.226562 131.265625 277.382812 C 131.5 277.539062 131.714844 277.71875 131.914062 277.917969 C 132.113281 278.117188 132.292969 278.332031 132.449219 278.566406 C 132.605469 278.800781 132.734375 279.046875 132.84375 279.308594 C 132.953125 279.566406 133.03125 279.835938 133.085938 280.113281 C 133.140625 280.386719 133.167969 280.667969 133.167969 280.949219 Z M 133.167969 280.949219 " fill-opacity="1" fill-rule="nonzero"/><path fill="#ffffff" d="M 125.191406 288.390625 L 132.550781 288.390625 L 132.550781 312.074219 L 125.191406 312.074219 Z M 125.191406 288.390625 " fill-opacity="1" fill-rule="nonzero"/><path fill="#ffffff" d="M 137.183594 288.390625 L 144.1875 288.390625 L 144.1875 312.074219 L 137.183594 312.074219 Z M 137.183594 288.390625 " fill-opacity="1" fill-rule="nonzero"/><path fill="#ffffff" d="M 137.484375 301 L 144.492188 301 L 144.492188 312.074219 L 137.484375 312.074219 Z M 137.484375 301 " fill-opacity="1" fill-rule="nonzero"/><path fill="#ffffff" d="M 144.492188 301 C 144.492188 301 144.382812 297.929688 145.191406 296.332031 C 145.191406 296.332031 146.003906 294.363281 148.550781 294.351562 C 148.550781 294.351562 151.535156 293.832031 152.390625 296.796875 C 152.390625 296.796875 152.714844 298.4375 152.714844 299.132812 C 152.714844 299.828125 152.738281 312.074219 152.738281 312.074219 L 160.078125 312.074219 L 160.078125 298.507812 C 160.078125 298.507812 160.609375 290.84375 156.011719 288.746094 C 156.011719 288.746094 148.449219 285.351562 144.34375 291.585938 C 144.34375 291.585938 143.449219 292.203125 143.324219 290.476562 C 143.199219 288.746094 142.152344 293.128906 142.121094 293.222656 C 142.089844 293.316406 143.324219 301.957031 143.324219 301.957031 Z M 144.492188 301 " fill-opacity="1" fill-rule="nonzero"/></svg>